<svg fill="#fff" xmlns="http://www.w3.org/2000/svg" viewBox="0 0 100 100" width="24px" height="24px"><path d="M 50 12 C 29.024587 12 12 29.024587 12 50 C 12 70.793788 28.732305 87.706612 49.458984 87.996094 C 57.556403 88.109359 64.982422 81.902679 64.982422 73.714844 C 64.982422 70.741742 64.443377 68.890689 63.943359 67.318359 C 63.443342 65.74603 63 64.485912 63 62.25 C 63 57.681354 66.681354 54 71.25 54 L 80 54 C 84.413839 54 88 50.391036 88 45.980469 C 88 27.40625 71.47619 12 50 12 z M 50 14 C 70.52381 14 86 28.592688 86 45.980469 C 86 49.313901 83.330161 52 80 52 L 71.25 52 C 65.600646 52 61 56.600646 61 62.25 C 61 64.764088 61.546127 66.379908 62.037109 67.923828 C 62.528092 69.467749 62.982422 70.972946 62.982422 73.714844 C 62.982422 80.683008 56.54491 86.094828 49.486328 85.996094 C 29.831008 85.721575 14 69.722212 14 50 C 14 30.105413 30.105413 14 50 14 z M 45 20 C 41.139805 20 38 23.139805 38 27 C 38 30.860195 41.139805 34 45 34 C 46.98116 34 48.772184 33.170083 50.044922 31.845703 A 0.50005 0.50005 0 1 0 49.324219 31.154297 C 48.230957 32.291917 46.70284 33 45 33 C 41.680195 33 39 30.319805 39 27 C 39 23.680195 41.680195 21 45 21 C 45.143359 21 45.296707 21.011277 45.464844 21.023438 A 0.50026033 0.50026033 0 1 0 45.535156 20.025391 C 45.371295 20.013543 45.194641 20 45 20 z M 47.498047 20.498047 A 0.50005 0.50005 0 0 0 47.306641 21.460938 C 48.438743 21.932953 49.394758 22.745766 50.050781 23.769531 A 0.50005 0.50005 0 1 0 50.892578 23.230469 C 50.128601 22.038234 49.017257 21.091046 47.693359 20.539062 A 0.50005 0.50005 0 0 0 47.498047 20.498047 z M 64 24 C 60.139805 24 57 27.139805 57 31 C 57 34.860195 60.139805 38 64 38 C 66.473623 38 68.649269 36.709308 69.892578 34.769531 A 0.50005 0.50005 0 1 0 69.050781 34.230469 C 67.98409 35.894692 66.126377 37 64 37 C 60.680195 37 58 34.319805 58 31 C 58 27.680195 60.680195 25 64 25 C 64.818656 25 65.59548 25.164466 66.306641 25.460938 A 0.50005 0.50005 0 1 0 66.693359 24.539062 C 65.86452 24.193534 64.953344 24 64 24 z M 51.292969 24.994141 A 0.50005 0.50005 0 0 0 50.832031 25.615234 C 50.903231 25.915764 50.952597 26.22186 50.976562 26.537109 A 0.50005 0.50005 0 1 0 51.972656 26.462891 C 51.944626 26.09414 51.887486 25.734236 51.804688 25.384766 A 0.50005 0.50005 0 0 0 51.292969 24.994141 z M 68.484375 25.810547 A 0.50005 0.50005 0 0 0 68.152344 26.675781 C 68.742772 27.243999 69.220382 27.928895 69.539062 28.693359 A 0.50005 0.50005 0 1 0 70.460938 28.306641 C 70.087617 27.411105 69.533228 26.614861 68.847656 25.955078 A 0.50005 0.50005 0 0 0 68.484375 25.810547 z M 70.480469 29.992188 A 0.50005 0.50005 0 0 0 69.976562 30.535156 C 69.988717 30.703293 70 30.856641 70 31 C 70 31.145331 69.989422 31.296771 69.976562 31.460938 A 0.50005 0.50005 0 1 0 70.972656 31.539062 C 70.985802 31.371234 71 31.192669 71 31 C 71 30.805359 70.986459 30.628707 70.974609 30.464844 A 0.50005 0.50005 0 0 0 70.480469 29.992188 z M 30 32 C 26.139927 32 23 35.13993 23 39 C 23 42.86007 26.139927 46 30 46 C 33.860073 46 37 42.86007 37 39 C 37 35.13993 33.860073 32 30 32 z M 30 33 C 33.319633 33 36 35.680369 36 39 C 36 42.319631 33.319633 45 30 45 C 26.680367 45 24 42.319631 24 39 C 24 35.680369 26.680367 33 30 33 z M 29 52 C 25.139805 52 22 55.139805 22 59 C 22 62.860195 25.139805 66 29 66 C 31.473623 66 33.649269 64.709308 34.892578 62.769531 A 0.50005 0.50005 0 1 0 34.050781 62.230469 C 32.98409 63.894692 31.126377 65 29 65 C 25.680195 65 23 62.319805 23 59 C 23 55.680195 25.680195 53 29 53 C 29.473802 53 29.935585 53.06173 30.384766 53.167969 A 0.50005 0.50005 0 1 0 30.615234 52.195312 C 30.100415 52.07355 29.560198 52 29 52 z M 32.486328 53.025391 A 0.50005 0.50005 0 0 0 32.230469 53.949219 C 33.254234 54.605242 34.067046 55.561257 34.539062 56.693359 A 0.50005 0.50005 0 1 0 35.460938 56.306641 C 34.908954 54.982743 33.961766 53.871399 32.769531 53.107422 A 0.50005 0.50005 0 0 0 32.486328 53.025391 z M 35.480469 57.992188 A 0.50005 0.50005 0 0 0 34.976562 58.535156 C 34.988717 58.703293 35 58.856641 35 59 C 35 59.145331 34.989423 59.296771 34.976562 59.460938 A 0.50005 0.50005 0 1 0 35.972656 59.539062 C 35.985802 59.371234 36 59.192669 36 59 C 36 58.805359 35.986449 58.628707 35.974609 58.464844 A 0.50005 0.50005 0 0 0 35.480469 57.992188 z M 47.5 64 C 43.369707 64 40 67.36971 40 71.5 C 40 75.63029 43.369707 79 47.5 79 C 51.630293 79 55 75.63029 55 71.5 C 55 67.36971 51.630293 64 47.5 64 z M 47.5 66 C 50.549414 66 53 68.450588 53 71.5 C 53 74.549412 50.549414 77 47.5 77 C 44.450586 77 42 74.549412 42 71.5 C 42 68.450588 44.450586 66 47.5 66 z"/></svg>